<svg width="433" height="414" viewBox="0 0 433 414" fill="none" xmlns="http://www.w3.org/2000/svg">
<path d="M2 114.853L16.2251 174.282L56.6877 191.352M2 114.853L44.3593 132.871M2 114.853L51.6299 85.4541L93.357 103.157M56.6877 191.352L107.898 161.005L93.357 103.157M56.6877 191.352L44.3593 132.871M93.357 103.157L44.3593 132.871" stroke="black" stroke-width="2"/>
<path d="M354.151 170.489L373.434 255.84" stroke="black" stroke-width="2"/>
<path d="M137.929 31.3986L152.154 90.8281L192.617 107.898M137.929 31.3986L180.288 49.4171M137.929 31.3986L187.559 2L229.286 19.7024M192.617 107.898L243.827 77.5513L229.286 19.7024M192.617 107.898L180.288 49.4171M229.286 19.7024L180.288 49.4171" stroke="black" stroke-width="2"/>
<path d="M175.863 194.513L190.088 253.943L230.551 271.013M175.863 194.513L218.222 212.532M175.863 194.513L225.493 165.115L267.22 182.817M230.551 271.013L281.761 240.666L267.22 182.817M230.551 271.013L218.222 212.532M267.22 182.817L218.222 212.532" stroke="black" stroke-width="2"/>
<path d="M50.0493 265.323L64.2745 324.753L104.737 341.823M50.0493 265.323L92.4086 283.342M50.0493 265.323L99.6792 235.924L141.406 253.627M104.737 341.823L155.948 311.476L141.406 253.627M104.737 341.823L92.4086 283.342M141.406 253.627L92.4086 283.342" stroke="black" stroke-width="2"/>
<path d="M199.255 335.5L213.481 394.93L253.943 412M199.255 335.5L241.615 353.519M199.255 335.5L248.885 306.102L290.612 323.804M253.943 412L305.154 381.653L290.612 323.804M253.943 412L241.615 353.519M290.612 323.804L241.615 353.519" stroke="black" stroke-width="2"/>
<path d="M325.701 254.575L339.926 314.005L380.389 331.075M325.701 254.575L368.06 272.594M325.701 254.575L375.331 225.177L417.058 242.879M380.389 331.075L431.599 300.728L417.058 242.879M380.389 331.075L368.06 272.594M417.058 242.879L368.06 272.594" stroke="black" stroke-width="2"/>
<path d="M290.928 98.4148L305.153 157.844L345.616 174.914M290.928 98.4148L333.288 116.433M290.928 98.4148L340.558 69.0162L382.285 86.7186M345.616 174.914L396.826 144.567L382.285 86.7186M345.616 174.914L333.288 116.433M382.285 86.7186L333.288 116.433" stroke="black" stroke-width="2"/>
<path d="M95.5697 263.11L75.6545 179.972" stroke="black" stroke-width="2"/>
<path d="M199.887 339.61L126.549 303.889" stroke="black" stroke-width="2"/>
<path d="M295.038 343.087L356.364 307.366" stroke="black" stroke-width="2"/>
<path d="M252.362 229.602L326.965 262.162" stroke="black" stroke-width="2"/>
<path d="M202.732 101.892L224.544 194.197" stroke="black" stroke-width="2"/>
<path d="M96.5181 115.801L164.166 76.2868" stroke="black" stroke-width="2"/>
</svg>
