<svg xmlns="http://www.w3.org/2000/svg" viewBox="0 0 544.41 198.77"><defs><style>.cls-1{fill:#201600;}.cls-2{fill:#fff;}</style></defs><title>sd</title><g id="Слой_2" data-name="Слой 2"><rect class="cls-1" x="29.12" y="22.61" width="90" height="148.28"/><rect class="cls-1" x="383.05" y="153.07" width="22.98" height="35.23"/></g><g id="Слой_1" data-name="Слой 1"><path class="cls-1" d="M65.78,176.11A21.91,21.91,0,0,1,87.7,154.19h32.09c56.72,0,94,29.68,94,96.85s-37.29,98.65-91.51,98.65H73.09a7.31,7.31,0,0,1-7.31-7.32Zm51.56,137.94c30.41,0,51.1-16.24,51.1-63s-20.69-61.22-51.1-61.22h0a7.31,7.31,0,0,0-7.31,7.31V306.74a7.31,7.31,0,0,0,7.31,7.31Z" transform="translate(-53.46 -154.19)"/></g><g id="Слой_3" data-name="Слой 3"><path class="cls-2" d="M53.46,339.21l12.36-14.79c7.19,5.89,16.07,9.93,25.29,9.93s13.36-3.54,13.36-8.19c0-6.85-5.66-8.5-14.66-12.28l-12.39-5.29c-10.55-4-20.17-12.09-20.17-25.93,0-15.76,14.19-28.36,34.87-28.36a46.11,46.11,0,0,1,31.59,12.46l-10.84,13.57c-6.7-4.81-12.63-7.43-21.93-7.43-7.09,0-11.9,2.94-11.9,8.5,0,5.72,6.37,7.82,15.5,11.24l11.64,4.93c12.46,4.67,20.32,12.44,20.32,25.87,0,15.81-13.26,29.51-36.82,29.51A54.8,54.8,0,0,1,53.46,339.21Z" transform="translate(-53.46 -154.19)"/></g><g id="Слой_4" data-name="Слой 4"><path class="cls-1" d="M215.08,341.26l3.89-4.65a1.75,1.75,0,0,1,2.36-.3,19.48,19.48,0,0,0,11.19,3.91c4.51,0,6.59-1.74,6.59-4,0-3.38-2.79-4.19-7.23-6.05l-6.12-2.61c-5.19-2-9.94-6-9.94-12.79,0-7.78,7-14,17.2-14a22.83,22.83,0,0,1,14.26,5,1.77,1.77,0,0,1,.27,2.47l-3.29,4.11a1.75,1.75,0,0,1-2.32.38,16.18,16.18,0,0,0-9.5-2.77c-3.5,0-5.88,1.45-5.88,4.19s3.15,3.85,7.65,5.54l5.74,2.43c6.15,2.31,10,6.14,10,12.76,0,7.8-6.55,14.56-18.16,14.56a27.16,27.16,0,0,1-16.47-5.61A1.78,1.78,0,0,1,215.08,341.26Z" transform="translate(-53.46 -154.19)"/><path class="cls-1" d="M268.06,310.51H257.5a1.75,1.75,0,0,1-1.75-1.75v-5.4a1.75,1.75,0,0,1,1.75-1.75h35.25a1.75,1.75,0,0,1,1.75,1.75v5.4a1.75,1.75,0,0,1-1.75,1.75H282.19a1.76,1.76,0,0,0-1.76,1.76v34.51a1.75,1.75,0,0,1-1.75,1.75h-7.11a1.75,1.75,0,0,1-1.76-1.75V312.27A1.75,1.75,0,0,0,268.06,310.51Z" transform="translate(-53.46 -154.19)"/><path class="cls-1" d="M313.25,301.61H323.4a1.75,1.75,0,0,1,1.67,1.23l13.52,43.41a1.75,1.75,0,0,1-1.67,2.28h-7.51a1.74,1.74,0,0,1-1.7-1.32L322,324.77c-1.18-4.68-2.61-10.18-3.74-15.13H318c-1.15,4.95-2.45,10.45-3.64,15.13l-5.76,22.44a1.75,1.75,0,0,1-1.7,1.32h-7.12a1.76,1.76,0,0,1-1.68-2.28l13.52-43.41A1.76,1.76,0,0,1,313.25,301.61Zm-4.48,27.49h18.94a1.75,1.75,0,0,1,1.76,1.75v4.77a1.75,1.75,0,0,1-1.76,1.75H308.77a1.75,1.75,0,0,1-1.76-1.75v-4.77A1.75,1.75,0,0,1,308.77,329.1Z" transform="translate(-53.46 -154.19)"/><path class="cls-1" d="M345,308.7a7.09,7.09,0,0,1,7.09-7.09H358c13.62,0,22.57,7.12,22.57,23.24s-8.95,23.68-22,23.68h-6.47a7.08,7.08,0,0,1-7.09-7.09ZM357.37,340c7.3,0,12.26-3.9,12.26-15.13s-5-14.69-12.26-14.69h0a1.76,1.76,0,0,0-1.75,1.75v26.31a1.76,1.76,0,0,0,1.75,1.76Z" transform="translate(-53.46 -154.19)"/><path class="cls-1" d="M399.23,332.31l-13.71-28.18a1.76,1.76,0,0,1,1.58-2.52h7.38a1.74,1.74,0,0,1,1.61,1.07l4.32,10.19c1.39,3.62,2.78,7,4.26,10.76H405c1.45-3.74,3-7.14,4.4-10.76l4.26-10.19a1.75,1.75,0,0,1,1.62-1.07h7.1a1.75,1.75,0,0,1,1.58,2.52l-13.71,28.18a1.67,1.67,0,0,0-.18.76v13.71a1.75,1.75,0,0,1-1.75,1.75h-7.11a1.75,1.75,0,0,1-1.76-1.75V333.07A1.67,1.67,0,0,0,399.23,332.31Z" transform="translate(-53.46 -154.19)"/><path class="cls-1" d="M431.39,308.69a7.08,7.08,0,0,1,7.09-7.08h5.87c13.62,0,22.57,7.12,22.57,23.24s-8.95,23.68-22,23.68h-6.48a7.08,7.08,0,0,1-7.08-7.08ZM443.76,340c7.3,0,12.27-3.9,12.27-15.13s-5-14.69-12.27-14.69h0a1.75,1.75,0,0,0-1.75,1.75v26.31a1.75,1.75,0,0,0,1.75,1.76Z" transform="translate(-53.46 -154.19)"/><path class="cls-1" d="M486.05,301.61h10.14a1.76,1.76,0,0,1,1.68,1.23l13.52,43.41a1.76,1.76,0,0,1-1.68,2.28H502.2a1.75,1.75,0,0,1-1.7-1.32l-5.72-22.44c-1.19-4.68-2.62-10.18-3.74-15.13h-.29c-1.15,4.95-2.46,10.45-3.64,15.13l-5.76,22.44a1.75,1.75,0,0,1-1.7,1.32h-7.13a1.76,1.76,0,0,1-1.67-2.28l13.52-43.41A1.76,1.76,0,0,1,486.05,301.61Zm-4.48,27.49h18.94a1.75,1.75,0,0,1,1.75,1.75v4.77a1.75,1.75,0,0,1-1.75,1.75H481.57a1.75,1.75,0,0,1-1.76-1.75v-4.77A1.75,1.75,0,0,1,481.57,329.1Z" transform="translate(-53.46 -154.19)"/><path class="cls-1" d="M517.71,303.36a1.75,1.75,0,0,1,1.76-1.75H534.4c9.94,0,18.12,3.45,18.12,14.62,0,10.78-8.18,15.42-18.12,15.42h-4.29a1.75,1.75,0,0,0-1.75,1.76v13.37a1.75,1.75,0,0,1-1.76,1.75h-7.13a1.75,1.75,0,0,1-1.76-1.75Zm15.83,19.86c5.57,0,8.57-2.4,8.57-7s-3-6.19-8.57-6.19h-3.43a1.75,1.75,0,0,0-1.75,1.75v9.68a1.75,1.75,0,0,0,1.75,1.75Zm7.35.76,12.4,21.93a1.76,1.76,0,0,1-1.53,2.62H544a1.75,1.75,0,0,1-1.55-.93L533.08,330a1.75,1.75,0,0,1,.36-2.11l4.73-4.38A1.75,1.75,0,0,1,540.89,324Z" transform="translate(-53.46 -154.19)"/><path class="cls-1" d="M572.44,301.61h10.15a1.76,1.76,0,0,1,1.68,1.23l13.52,43.41a1.76,1.76,0,0,1-1.68,2.28H588.6a1.75,1.75,0,0,1-1.7-1.32l-5.72-22.44c-1.19-4.68-2.62-10.18-3.75-15.13h-.28c-1.15,4.95-2.46,10.45-3.65,15.13l-5.76,22.44a1.74,1.74,0,0,1-1.7,1.32h-7.12a1.76,1.76,0,0,1-1.67-2.28l13.52-43.41A1.76,1.76,0,0,1,572.44,301.61ZM568,329.1h18.95a1.75,1.75,0,0,1,1.75,1.75v4.77a1.75,1.75,0,0,1-1.75,1.75H568a1.75,1.75,0,0,1-1.75-1.75v-4.77A1.75,1.75,0,0,1,568,329.1Z" transform="translate(-53.46 -154.19)"/></g></svg>